<svg xmlns="http://www.w3.org/2000/svg" height="256" width="256" viewBox="0 0 256 256">
	<g>
		<path id="path1" transform="rotate(0,128,128) translate(0,9.04794033953327) scale(8.00000429153673,8.00000429153673)  " fill="#FFFFFF" d="M29.958997,8.7459774L31.999982,8.7459774 31.999982,20.992006 29.958997,20.992006z M25.876999,8.7459774L27.918014,8.7459774 27.918014,20.992006 25.876999,20.992006z M21.795,8.7459774L23.836013,8.7459774 23.836013,20.992006 21.795,20.992006z M11.589998,5.245965L2.7690128,14.868999 11.589998,24.491913 11.589998,18.950905 17.713014,18.950905 17.713014,10.786974 11.589998,10.786974z M13.631013,0L13.631013,8.7459611 19.754001,8.7459611 19.754001,20.991917 13.631013,20.991917 13.631013,29.737999 0,14.868999z" />
	</g>
</svg>
