<svg xmlns="http://www.w3.org/2000/svg" height="256" width="256" viewBox="0 0 256 256">
	<g>
		<path id="path1" transform="rotate(0,128,128) translate(0,9.04798234081058) scale(8.00000095367443,8.00000095367443)  " fill="#FFFFFF" d="M8.1639991,8.7460597L10.205045,8.7460597 10.205045,20.992088 8.1639991,20.992088z M4.0820303,8.7460597L6.1230145,8.7460597 6.1230145,20.992088 4.0820303,20.992088z M0,8.7460597L2.0410461,8.7460597 2.0410461,20.992088 0,20.992088z M20.409986,5.2459867L20.409986,10.787018 14.287009,10.787018 14.287009,18.950982 20.409986,18.950982 20.409986,24.492013 29.231018,14.869061z M18.369033,0L31.999996,14.869061 18.369033,29.738 18.369033,20.992004 12.245995,20.992004 12.245995,8.7459967 18.369033,8.7459967z" />
	</g>
</svg>
